<?xml version="1.0" standalone="no"?>
<!DOCTYPE svg PUBLIC "-//W3C//DTD SVG 20010904//EN"
 "http://www.w3.org/TR/2001/REC-SVG-20010904/DTD/svg10.dtd">
<svg version="1.0" xmlns="http://www.w3.org/2000/svg"
 width="650.000000pt" height="190.000000pt" viewBox="0 0 650.000000 190.000000"
 preserveAspectRatio="xMidYMid meet">

<g transform="translate(0.000000,190.000000) scale(0.100000,-0.100000)"
fill="#000000" stroke="none">
<path d="M4210 629 c-36 -3 -243 -4 -460 -2 -217 2 -424 0 -460 -4 -40 -6 428
-10 1195 -11 693 -1 1430 -5 1638 -8 320 -6 377 -5 377 7 0 12 -54 15 -323 17
-639 6 -1903 7 -1967 1z"/>
<path d="M150 619 c0 -5 148 -9 338 -9 185 -1 401 -2 480 -3 100 -2 139 0 132
7 -14 14 -950 18 -950 5z"/>
<path d="M1260 620 c-246 -10 -98 -17 300 -15 518 4 515 4 506 13 -9 8 -612
10 -806 2z"/>
<path d="M2955 623 c-22 -3 -44 -9 -50 -14 -10 -10 90 -5 235 11 59 7 56 7
-40 7 -58 0 -123 -2 -145 -4z"/>
</g>
</svg>
