<?xml version="1.0" standalone="no"?>
<!DOCTYPE svg PUBLIC "-//W3C//DTD SVG 20010904//EN"
 "http://www.w3.org/TR/2001/REC-SVG-20010904/DTD/svg10.dtd">
<svg version="1.0" xmlns="http://www.w3.org/2000/svg"
 width="350.000000pt" height="350.000000pt" viewBox="0 0 350.000000 350.000000"
 preserveAspectRatio="xMidYMid meet">

<g transform="translate(0.000000,350.000000) scale(0.100000,-0.100000)"
fill="#000000" stroke="none">
<path d="M1995 2571 c-44 -20 -133 -104 -173 -164 -30 -45 -60 -62 -124 -72
-69 -10 -103 6 -195 93 -109 104 -162 133 -261 139 -92 6 -169 -13 -229 -57
-41 -30 -134 -155 -154 -206 -15 -39 -39 -180 -39 -229 0 -24 -8 -50 -20 -65
-11 -14 -20 -29 -20 -35 0 -5 15 -50 34 -100 18 -49 50 -143 70 -207 20 -64
57 -158 82 -207 38 -76 52 -95 87 -115 50 -28 110 -41 135 -27 30 16 46 -2 38
-42 -4 -21 -2 -38 4 -42 6 -4 24 -33 40 -65 16 -32 38 -61 49 -65 10 -3 24
-19 31 -35 8 -18 20 -30 31 -30 10 0 25 -13 33 -29 20 -38 61 -64 84 -53 21
12 42 5 42 -14 0 -8 9 -14 20 -14 11 0 27 -11 36 -25 27 -42 33 -28 8 23 -13
26 -24 53 -24 60 0 17 -27 15 -34 -4 -9 -22 -26 -7 -27 24 -1 27 -1 27 -15 -5
-16 -36 -34 -44 -34 -14 0 12 -12 24 -30 32 -16 8 -31 23 -32 34 -2 12 -9 19
-19 17 -10 -1 -25 14 -40 43 -17 33 -29 45 -41 41 -20 -5 -20 -5 -23 47 -1 21
-9 47 -18 58 -9 10 -17 26 -17 34 0 19 21 65 30 65 4 0 13 31 20 69 10 56 11
78 1 114 -16 55 -11 91 12 95 15 3 17 -6 17 -72 0 -61 3 -76 15 -76 8 0 15 -9
15 -20 0 -13 5 -18 15 -14 12 5 15 -2 15 -30 0 -20 5 -36 10 -36 6 0 10 9 10
20 0 11 5 20 11 20 8 0 9 -29 4 -96 -6 -73 -5 -95 4 -90 7 4 9 16 6 25 -7 21
3 51 17 51 5 0 7 -8 4 -17 -3 -10 -1 -25 4 -33 7 -11 10 -5 10 23 0 41 4 44
27 21 11 -11 14 -27 10 -55 -3 -21 -1 -39 4 -39 5 0 9 7 9 15 0 8 4 15 10 15
6 0 7 -23 4 -59 -4 -39 -3 -61 5 -65 7 -5 11 4 11 26 0 39 10 78 19 78 3 0 6
-43 6 -94 0 -62 4 -99 12 -107 18 -18 29 -2 15 21 -18 29 -16 110 3 110 11 0
15 -12 15 -45 0 -27 5 -45 11 -45 8 0 10 14 6 45 -8 55 2 167 14 159 5 -3 9
-25 9 -50 0 -24 3 -44 8 -44 4 0 14 21 22 47 12 37 21 48 45 56 17 5 42 19 58
29 l27 19 0 -60 c0 -33 -5 -72 -10 -87 -6 -15 -8 -30 -4 -33 9 -10 54 52 54
75 0 12 7 27 15 34 9 7 15 20 14 29 -3 38 3 50 37 66 33 15 35 20 30 49 -5 24
-1 40 14 59 11 14 20 31 20 37 0 7 11 21 24 31 13 10 32 39 42 64 20 47 40 62
31 23 -3 -13 -14 -47 -26 -77 -32 -84 -31 -161 3 -161 7 0 21 -9 31 -20 10
-11 27 -20 37 -20 18 0 19 -5 14 -57 -3 -32 -8 -71 -10 -88 -3 -16 -5 -36 -5
-44 -1 -11 -6 -10 -21 4 -19 18 -20 17 -20 -1 0 -21 -26 -64 -39 -64 -5 0 -12
10 -16 23 -7 19 -9 17 -12 -15 -3 -30 -9 -38 -24 -38 -10 0 -19 -4 -19 -10 0
-5 -9 -10 -20 -10 -11 0 -20 -4 -20 -9 0 -5 12 -9 28 -9 18 0 45 16 82 48 31
26 65 49 75 51 15 3 21 14 23 43 2 22 10 49 18 60 8 11 14 37 14 58 0 21 3 39
8 39 4 1 22 3 41 5 38 4 107 41 132 70 63 73 179 386 179 483 0 32 34 105 67
143 16 18 10 38 -12 38 -18 0 -45 39 -45 65 1 24 -46 176 -69 224 -20 44 -107
139 -160 176 -27 18 -71 34 -128 46 -111 23 -148 23 -198 0z m123 -26 c46 -26
55 -24 20 6 -20 16 -21 18 -5 19 28 0 140 -40 160 -57 9 -9 17 -23 17 -32 0
-14 2 -14 10 -1 9 13 12 12 25 -4 8 -11 15 -16 15 -11 0 5 18 -10 40 -34 22
-23 40 -47 40 -52 0 -5 0 -11 0 -14 -1 -3 6 -13 15 -21 16 -16 21 -60 7 -66
-4 -1 -20 -25 -35 -53 l-28 -50 30 35 c17 19 31 38 31 42 0 4 7 8 15 8 18 0
18 -5 5 -30 -8 -16 -8 -18 5 -14 33 13 0 -42 -40 -65 l-20 -13 20 8 c40 14 65
16 65 6 0 -6 -5 -14 -12 -18 -20 -13 -88 -22 -94 -13 -3 5 -10 9 -15 9 -6 0
-8 -4 -5 -8 3 -5 -18 -14 -46 -21 -48 -11 -54 -10 -72 9 l-21 20 33 60 c18 32
44 90 57 127 25 73 38 85 55 54 6 -12 18 -21 26 -21 13 0 12 4 -3 25 -10 13
-26 27 -35 30 -10 4 -18 12 -18 19 0 12 -15 15 -83 17 -28 1 -50 -7 -80 -28
-53 -38 -138 -142 -173 -210 -27 -54 -43 -68 -40 -35 1 12 -5 16 -20 15 -31
-3 -125 56 -151 96 -28 42 -29 51 -3 51 28 0 180 -70 180 -83 0 -15 -58 0
-113 28 -27 14 -47 19 -45 13 3 -7 27 -23 54 -37 27 -13 51 -27 54 -30 17 -20
90 5 90 31 0 17 90 127 136 165 46 39 52 51 32 71 -9 9 -14 6 -23 -11 -11 -22
-19 -24 -65 -12 -21 5 -22 5 -7 -5 27 -17 21 -33 -10 -26 -23 5 -25 4 -10 -4
25 -16 11 -33 -16 -19 -22 12 -22 12 -3 -9 17 -20 17 -22 2 -28 -9 -3 -26 -4
-37 -1 -20 5 -20 5 -3 -14 26 -29 2 -41 -42 -23 -42 18 -49 18 -34 0 6 -8 21
-16 32 -18 12 -2 23 -9 26 -15 8 -27 -30 -23 -102 11 -41 20 -80 36 -86 36
-14 0 -12 16 4 29 11 9 22 9 50 -3 20 -8 36 -12 36 -7 0 4 -16 13 -36 20 -41
15 -40 34 2 41 20 4 25 8 16 14 -22 14 23 54 56 50 15 -2 19 -1 10 2 -23 7
-23 21 1 34 31 16 54 12 117 -20 67 -34 64 -33 64 -22 0 4 -26 20 -57 36 -43
21 -53 30 -42 37 21 13 30 11 77 -16z m-840 1 c6 -7 -1 -14 -38 -36 -8 -4 -12
-11 -9 -14 3 -3 22 7 43 21 l37 27 43 -22 c23 -13 53 -34 67 -48 70 -70 65
-62 43 -80 -18 -14 -18 -15 4 -4 25 12 31 9 85 -39 15 -14 27 -33 27 -42 0
-10 -20 -39 -45 -65 -25 -26 -43 -49 -41 -51 5 -6 106 98 106 110 0 13 48 7
64 -8 18 -18 27 -19 24 -3 -2 6 13 15 32 19 30 7 38 5 55 -15 44 -51 55 -67
55 -76 0 -6 6 -10 13 -10 7 0 23 -9 35 -21 12 -11 26 -18 30 -15 13 8 104 -49
143 -91 47 -49 59 -95 29 -116 -13 -9 -17 -17 -11 -22 15 -9 14 -51 -2 -88
-31 -74 -36 -96 -21 -108 22 -18 17 -89 -11 -145 -41 -80 -105 -110 -105 -49
0 15 -4 24 -10 20 -6 -3 -10 -15 -10 -26 0 -10 -6 -18 -12 -16 -7 1 -14 -8
-16 -20 -2 -13 1 -23 7 -23 6 0 11 7 11 15 0 15 21 21 33 9 6 -7 -31 -51 -39
-46 -3 2 -13 -7 -23 -19 -16 -20 -21 -21 -51 -11 -18 7 -45 12 -60 12 -33 0
-39 6 -33 31 4 12 17 22 35 26 16 3 34 15 40 27 11 20 10 20 -9 4 -11 -10 -26
-18 -34 -18 -8 0 -25 -7 -37 -16 -20 -14 -25 -14 -40 -2 -9 8 -34 19 -54 25
-29 9 -35 8 -31 -3 2 -7 18 -16 35 -19 16 -4 32 -13 35 -21 8 -22 -16 -45 -42
-38 -13 3 -32 1 -42 -4 -35 -19 -48 1 -48 72 0 57 4 69 28 94 17 18 24 31 17
38 -5 5 -19 36 -30 68 -15 44 -17 62 -9 72 6 7 9 19 7 26 -6 17 -58 -73 -58
-99 0 -11 9 -32 21 -47 26 -33 22 -71 -7 -70 -16 0 -20 -5 -16 -23 5 -25 -15
-32 -36 -11 -8 8 -12 8 -12 1 0 -6 7 -16 15 -23 20 -17 19 -30 -4 -30 -25 0
-87 70 -96 109 -3 17 -11 33 -16 36 -5 4 -9 31 -9 61 0 41 4 54 15 54 8 0 15
-6 15 -12 1 -15 35 -58 46 -58 4 0 3 5 -4 12 -18 18 -14 52 9 82 20 25 20 26
1 26 -30 0 -61 31 -68 68 -8 39 12 44 26 7 8 -21 16 -25 48 -25 21 0 43 -5 50
-12 33 -33 25 34 -8 70 -17 18 -25 21 -36 11 -9 -7 -24 -8 -41 -3 -16 4 -34 6
-40 5 -9 -1 -13 11 -13 34 0 26 4 35 16 35 13 0 14 3 4 15 -6 8 -8 20 -4 27 4
7 7 27 6 45 -2 26 1 33 15 33 12 0 -12 29 -67 85 -99 100 -180 165 -204 165
-15 0 -15 -4 6 -41 22 -40 40 -40 18 0 -13 26 1 27 23 3 14 -16 47 -102 47
-124 0 -21 -23 -4 -36 27 -17 40 -29 47 -20 10 7 -27 -2 -32 -23 -12 -8 7 -7
-1 4 -21 9 -19 13 -37 10 -40 -11 -11 -56 51 -51 71 2 9 -2 17 -9 17 -14 0
-65 62 -65 80 0 24 36 3 58 -35 13 -22 21 -31 17 -20 -4 11 -9 36 -12 56 -5
32 -7 35 -34 31 -17 -3 -43 -20 -64 -43 -19 -22 -40 -39 -46 -39 -5 0 -8 -4
-5 -9 7 -11 -22 -71 -35 -71 -12 0 -12 8 7 69 23 80 111 207 130 188 3 -3 19
7 35 21 43 38 105 60 167 57 29 -2 56 -6 60 -9z m992 -166 c0 -33 -22 -136
-37 -178 -13 -34 -19 -40 -29 -31 -11 9 -14 8 -14 -5 0 -9 -5 -16 -11 -16 -6
0 -9 9 -6 20 3 11 1 20 -4 20 -5 0 -9 -8 -9 -19 0 -14 -6 -18 -26 -15 -39 4
-54 -5 -54 -32 0 -13 -4 -24 -9 -24 -17 0 -21 45 -9 103 12 57 28 77 28 35 1
-22 1 -22 12 -3 11 19 11 19 19 0 6 -15 8 -9 10 23 2 56 3 59 12 68 4 4 7 -2
7 -14 0 -12 5 -22 10 -22 6 0 10 16 10 35 0 28 4 35 19 35 14 0 21 -10 25 -35
4 -20 4 -40 1 -45 -3 -6 -2 -10 4 -10 14 0 24 55 16 100 -8 49 2 71 22 45 7
-11 13 -26 13 -35z m60 1 c0 -54 -55 -190 -70 -175 -10 11 28 182 44 200 16
17 26 7 26 -25z m-1312 -89 c20 -21 43 -49 50 -63 22 -40 46 -65 69 -71 17 -5
20 -2 16 11 -3 9 -10 21 -14 27 -5 6 -6 14 -2 18 4 4 15 -3 25 -16 12 -16 18
-18 18 -8 0 13 1 13 10 0 15 -24 19 -7 9 39 -5 24 -8 46 -5 48 10 11 26 -10
26 -33 0 -24 14 -32 25 -15 3 5 16 0 30 -13 20 -18 25 -35 29 -92 3 -38 3 -59
0 -46 -6 24 -19 29 -27 10 -4 -9 -8 -10 -14 -2 -19 24 -74 37 -132 30 -38 -4
-62 -3 -66 4 -3 5 -13 10 -21 10 -8 0 -12 -4 -9 -10 10 -16 -15 -11 -54 11
-20 11 -28 14 -18 6 9 -8 17 -17 17 -21 0 -14 -44 -5 -72 15 -24 18 -28 26
-23 48 4 14 12 33 19 41 7 8 16 24 20 34 6 19 7 18 29 -1 41 -37 52 -37 20 0
-28 33 -31 40 -21 57 17 27 23 26 66 -18z m1240 -114 c-2 -6 -10 -14 -16 -16
-7 -2 -10 2 -6 12 7 18 28 22 22 4z m-918 -59 c0 -16 -4 -29 -10 -29 -5 0 -10
16 -10 36 0 21 4 33 10 29 6 -3 10 -19 10 -36z m-88 -44 c22 -15 37 -29 35
-32 -3 -3 -29 0 -57 6 -28 6 -64 11 -80 11 -37 0 -49 19 -24 37 26 19 77 10
126 -22z m982 29 c37 -14 18 -25 -86 -48 -38 -9 -36 10 5 34 33 21 54 24 81
14z m242 -15 c24 -6 44 -14 44 -18 -1 -16 -19 -32 -55 -47 -22 -9 -71 -40
-110 -69 -80 -60 -103 -69 -151 -60 -47 8 -43 24 4 18 40 -5 87 12 111 41 19
22 4 20 -27 -4 -18 -15 -28 -18 -36 -9 -27 27 150 135 185 113 5 -3 9 0 9 7 0
19 -83 5 -145 -26 -31 -15 -76 -45 -101 -66 -49 -42 -50 -43 -58 -31 -6 10
104 101 152 126 29 15 89 33 120 35 7 1 33 -4 58 -10z m-1343 -67 c53 -31 97
-59 97 -63 0 -24 -27 -16 -75 21 -65 50 -141 80 -198 79 -23 -1 -33 -3 -22 -6
11 -2 27 -7 35 -10 8 -3 29 -6 46 -7 34 -3 99 -38 153 -84 40 -34 37 -62 -6
-62 -43 0 -185 74 -252 132 -40 35 -40 56 2 61 71 10 121 -4 220 -61z m1097
29 c0 -11 -85 -81 -99 -81 -6 0 -11 6 -11 14 0 8 -3 21 -6 30 -4 11 4 17 33
22 21 3 45 10 53 15 20 11 30 11 30 0z m-952 -32 c28 -9 32 -15 32 -45 0 -20
-5 -34 -12 -34 -16 0 -137 82 -138 93 0 10 71 2 118 -14z m1302 3 c0 -4 -30
-37 -66 -72 -36 -36 -76 -79 -87 -96 -12 -17 -42 -58 -66 -90 -66 -86 -84
-142 -77 -234 6 -66 4 -80 -16 -120 -26 -50 -58 -64 -120 -54 -50 8 -78 43
-78 100 0 46 43 177 60 182 5 2 10 9 10 16 0 16 89 146 147 214 48 56 126 111
202 142 48 20 91 25 91 12z m-1645 -60 c77 -40 252 -221 296 -307 69 -133 75
-190 19 -202 -16 -3 -27 -9 -24 -14 3 -5 17 -6 31 -3 38 10 20 -12 -22 -26
-23 -8 -45 -8 -68 -2 -19 5 -46 8 -59 5 -16 -3 -32 2 -43 13 -17 17 -17 17
-11 -4 5 -15 3 -22 -6 -22 -18 1 -53 28 -45 36 3 4 -3 18 -13 32 -11 13 -20
35 -20 48 0 12 -10 44 -21 71 -33 76 -99 265 -99 284 0 17 2 17 30 1 18 -10
28 -23 25 -31 -3 -9 0 -11 10 -7 8 3 15 1 15 -3 0 -5 -6 -12 -12 -14 -7 -3 -1
-6 15 -6 27 -1 40 -21 13 -21 -8 0 -17 -4 -20 -8 -3 -5 9 -7 27 -5 l32 4 -27
-16 c-34 -19 -36 -28 -5 -16 24 9 47 4 47 -10 0 -5 -8 -9 -17 -9 -10 0 -25 -5
-33 -10 -11 -7 -5 -8 19 -3 25 4 32 3 27 -5 -4 -7 -15 -12 -24 -12 -15 0 -15
-2 -2 -10 13 -9 13 -11 0 -21 -12 -8 -10 -9 8 -4 23 7 32 -9 10 -18 -7 -3 3
-4 22 -1 32 4 33 3 13 -7 -30 -16 -29 -27 2 -21 15 2 25 0 25 -7 0 -6 -6 -11
-14 -11 -8 0 -18 -5 -22 -11 -5 -8 1 -10 18 -6 37 10 40 -2 10 -30 -22 -20
-23 -22 -5 -14 29 15 36 14 30 -3 -3 -7 1 -23 9 -34 8 -11 11 -27 8 -36 -9
-24 23 -20 36 4 17 32 -4 119 -51 216 -35 72 -54 97 -125 162 -46 42 -95 83
-109 92 -24 14 -32 39 -18 54 11 11 63 -3 118 -32z m356 -38 c22 -14 39 -30
36 -37 -5 -15 -87 -22 -87 -8 0 6 12 11 28 11 l27 0 -33 20 c-18 11 -30 25
-27 30 9 14 10 13 56 -16z m899 -44 c63 -12 67 -15 49 -33 -8 -8 -25 -29 -39
-47 -14 -18 -29 -38 -35 -44 -5 -7 -18 -25 -27 -41 -9 -16 -21 -31 -26 -33
-15 -5 -35 55 -29 85 3 16 8 46 13 68 6 36 18 54 35 55 4 0 30 -5 59 -10z
m-923 -21 c28 1 54 -2 57 -8 6 -10 -14 -107 -33 -153 -6 -16 -16 -28 -23 -28
-7 0 -32 26 -56 58 -23 31 -54 71 -68 89 -34 42 -24 57 30 47 22 -4 64 -7 93
-5z m1236 -6 c5 -9 -15 -123 -24 -138 -4 -5 -14 -34 -24 -63 -30 -92 -101
-227 -135 -256 -18 -15 -34 -25 -37 -22 -2 2 1 24 8 47 11 41 13 42 19 19 6
-19 9 -21 14 -9 4 8 -1 32 -9 53 -15 36 -15 40 0 55 15 15 17 15 29 -1 7 -10
17 -18 22 -18 4 0 3 5 -4 12 -7 7 -12 17 -12 22 0 6 5 5 12 -2 17 -17 33 -15
18 3 -8 9 -21 13 -36 9 -15 -4 -24 -2 -24 5 0 18 26 24 50 11 12 -6 24 -9 27
-6 4 3 -8 11 -25 17 -39 14 -41 29 -4 30 23 2 24 2 5 6 -34 7 -28 23 10 25
l32 1 -33 4 c-42 6 -31 23 16 24 30 2 32 3 10 6 -16 2 -28 9 -28 14 0 5 12 10
28 10 24 1 23 2 -8 9 l-35 7 25 11 c22 9 22 11 5 12 -15 0 -17 2 -6 9 7 5 11
13 7 19 -3 6 3 14 15 17 11 4 18 9 15 12 -3 3 6 17 20 30 25 23 49 30 57 16z
m-710 -430 c23 -4 28 -9 25 -31 -4 -31 -74 -71 -125 -72 -40 0 -103 51 -103
84 0 22 4 23 88 24 48 0 100 -2 115 -5z m-546 -50 c4 -12 -66 -43 -97 -43 -27
0 -36 20 -8 21 13 0 17 3 11 6 -19 7 -16 21 5 26 31 7 86 1 89 -10z"/>
<path d="M1988 2483 c7 -3 16 -2 19 1 4 3 -2 6 -13 5 -11 0 -14 -3 -6 -6z"/>
<path d="M2030 2460 c0 -6 7 -10 15 -10 8 0 15 2 15 4 0 2 -7 6 -15 10 -8 3
-15 1 -15 -4z"/>
<path d="M2010 2430 c20 -13 33 -13 25 0 -3 6 -14 10 -23 10 -15 0 -15 -2 -2
-10z"/>
<path d="M1926 2415 c10 -8 24 -14 29 -14 6 0 1 6 -9 14 -11 8 -24 15 -30 15
-5 0 -1 -7 10 -15z"/>
<path d="M2371 2272 c-11 -22 -25 -43 -30 -46 -13 -8 -52 -86 -43 -86 4 0 28
30 52 68 24 37 49 70 54 74 8 5 7 11 -1 19 -9 9 -16 2 -32 -29z"/>
<path d="M2339 2134 c-21 -24 -22 -26 -3 -16 25 13 50 42 37 42 -5 0 -20 -12
-34 -26z"/>
<path d="M1213 2448 c-52 -35 -60 -44 -52 -60 10 -18 44 -25 51 -10 5 11 58
46 106 71 23 12 42 23 42 26 0 9 -55 -16 -102 -47 -45 -28 -76 -35 -60 -13 4
6 27 25 51 43 65 46 37 39 -36 -10z"/>
<path d="M1143 2444 c-20 -18 -22 -22 -7 -15 21 10 52 41 41 41 -3 0 -19 -12
-34 -26z"/>
<path d="M1090 2445 c-8 -9 -8 -15 -2 -15 12 0 26 19 19 26 -2 2 -10 -2 -17
-11z"/>
<path d="M1026 2425 c-3 -8 -1 -15 3 -15 5 0 11 7 15 15 3 8 1 15 -3 15 -5 0
-11 -7 -15 -15z"/>
<path d="M1325 2405 c-27 -19 -60 -34 -72 -34 -25 -1 -39 -19 -26 -32 9 -9
119 56 158 92 22 21 -13 5 -60 -26z"/>
<path d="M1360 2379 c-22 -18 -22 -19 -3 -10 12 6 25 16 28 21 9 15 3 12 -25
-11z"/>
<path d="M1276 2325 c-11 -8 -15 -15 -10 -15 6 0 19 7 30 15 10 8 15 14 9 14
-5 0 -19 -6 -29 -14z"/>
<path d="M1301 2291 c-8 -5 -9 -11 -3 -15 5 -3 15 1 22 9 14 16 3 20 -19 6z"/>
<path d="M1465 2284 c-11 -9 -29 -22 -39 -30 -11 -7 -18 -16 -15 -18 3 -3 23
10 44 29 40 35 47 47 10 19z"/>
<path d="M1490 2250 c-41 -36 -90 -53 -90 -31 0 5 -9 7 -20 4 -11 -3 -20 -10
-20 -15 0 -6 9 -8 20 -5 11 3 23 1 26 -4 3 -5 0 -9 -5 -9 -6 0 -11 -7 -11 -15
0 -25 13 -18 85 50 77 70 87 89 15 25z"/>
<path d="M1340 2260 c-8 -5 -11 -12 -8 -15 4 -4 17 0 30 9 24 17 5 23 -22 6z"/>
<path d="M1745 2240 c28 -12 37 -12 30 0 -3 6 -16 10 -28 9 -21 0 -21 -1 -2
-9z"/>
<path d="M1655 2206 l30 -25 17 22 c18 24 6 36 -16 17 -10 -7 -16 -8 -21 0 -3
5 -14 10 -23 10 -12 0 -9 -7 13 -24z"/>
<path d="M1426 2144 c-15 -14 -26 -27 -23 -30 3 -3 20 8 39 25 18 17 29 30 23
30 -5 0 -23 -11 -39 -25z"/>
<path d="M1680 2081 c0 -6 5 -13 10 -16 6 -3 10 1 10 9 0 9 -4 16 -10 16 -5 0
-10 -4 -10 -9z"/>
<path d="M1411 2031 c-29 -5 -32 -8 -19 -19 12 -10 21 -10 42 2 33 17 23 24
-23 17z"/>
<path d="M2015 2030 c-8 -13 5 -13 25 0 13 8 13 10 -2 10 -9 0 -20 -4 -23 -10z"/>
<path d="M1608 2009 c-10 -5 -18 -19 -18 -31 0 -16 3 -18 14 -9 11 9 30 52 23
51 -1 0 -10 -5 -19 -11z"/>
<path d="M1950 2010 c-24 -15 -7 -18 20 -3 14 7 18 13 10 13 -8 0 -22 -4 -30
-10z"/>
<path d="M1740 2006 c0 -3 9 -10 20 -16 11 -6 20 -8 20 -6 0 3 -9 10 -20 16
-11 6 -20 8 -20 6z"/>
<path d="M1688 1909 c2 -47 -1 -84 -6 -88 -13 -8 19 -113 33 -107 5 2 9 8 8
15 -2 6 -5 57 -9 113 -6 115 -11 148 -22 148 -4 0 -6 -37 -4 -81z"/>
<path d="M1920 1954 c0 -8 5 -12 10 -9 6 3 10 10 10 16 0 5 -4 9 -10 9 -5 0
-10 -7 -10 -16z"/>
<path d="M1553 1926 c-11 -13 -27 -26 -34 -28 -14 -5 -4 -28 12 -28 6 0 7 5 4
10 -3 6 0 10 8 10 13 0 42 48 34 56 -2 2 -13 -7 -24 -20z"/>
<path d="M1972 1929 c-7 -11 -17 -30 -21 -43 -8 -21 -6 -22 37 -21 40 0 48 4
61 27 12 21 13 30 4 39 -10 10 -17 9 -31 -4 -31 -28 -59 -18 -30 11 7 7 8 12
2 12 -5 0 -15 -9 -22 -21z"/>
<path d="M1820 1932 c0 -5 6 -15 14 -21 8 -7 17 -23 20 -36 8 -33 46 -35 46
-3 0 17 -3 19 -12 10 -8 -8 -15 -3 -27 20 -16 31 -41 49 -41 30z"/>
<path d="M1930 1842 c0 -12 19 -26 26 -19 2 2 -2 10 -11 17 -9 8 -15 8 -15 2z"/>
<path d="M1869 1778 c-4 -88 -7 -106 -23 -130 -17 -26 -17 -28 1 -52 23 -32
31 -33 25 -1 -2 14 3 36 12 50 17 25 20 71 10 124 -7 36 -24 42 -25 9z"/>
<path d="M1675 1650 c-4 -6 6 -10 22 -10 22 0 25 2 13 10 -19 12 -27 12 -35 0z"/>
<path d="M1470 1634 c0 -8 5 -12 10 -9 6 3 10 10 10 16 0 5 -4 9 -10 9 -5 0
-10 -7 -10 -16z"/>
<path d="M1698 1613 c18 -2 45 -2 60 0 15 2 0 4 -33 4 -33 0 -45 -2 -27 -4z"/>
<path d="M1641 1553 c-8 -3 2 -12 25 -23 37 -16 41 -16 77 2 20 10 37 21 37
23 0 7 -122 5 -139 -2z"/>
<path d="M2181 2254 c0 -11 3 -14 6 -6 3 7 2 16 -1 19 -3 4 -6 -2 -5 -13z"/>
<path d="M2200 2219 c0 -5 5 -7 10 -4 6 3 10 8 10 11 0 2 -4 4 -10 4 -5 0 -10
-5 -10 -11z"/>
<path d="M2091 2194 c0 -11 3 -14 6 -6 3 7 2 16 -1 19 -3 4 -6 -2 -5 -13z"/>
<path d="M2120 2195 c0 -9 6 -12 15 -9 8 4 15 10 15 15 0 5 -7 9 -15 9 -8 0
-15 -7 -15 -15z"/>
<path d="M954 2192 c17 -18 34 -32 38 -32 15 0 0 18 -35 41 l-32 22 29 -31z"/>
<path d="M900 2186 c0 -2 8 -10 18 -17 15 -13 16 -12 3 4 -13 16 -21 21 -21
13z"/>
<path d="M1057 2159 c18 -18 35 -31 37 -28 3 3 -12 18 -32 33 l-37 29 32 -34z"/>
<path d="M1271 2164 c0 -11 3 -14 6 -6 3 7 2 16 -1 19 -3 4 -6 -2 -5 -13z"/>
<path d="M1193 2162 c-8 -5 -4 -11 11 -18 20 -9 23 -8 18 8 -5 20 -11 22 -29
10z"/>
<path d="M2488 1974 c-4 -3 -14 -7 -25 -8 -10 -2 -19 -13 -21 -24 -2 -12 -10
-22 -18 -22 -8 0 -14 -7 -14 -15 0 -8 -6 -15 -13 -15 -8 0 -20 -11 -27 -25 -7
-14 -19 -25 -26 -25 -6 0 -14 -7 -18 -15 -3 -8 -18 -16 -33 -16 -17 -1 -21 -3
-10 -6 27 -7 20 -23 -10 -24 -27 0 -27 -1 -5 -9 30 -12 28 -24 -3 -18 -14 3
-25 1 -25 -3 0 -5 7 -9 15 -9 18 0 20 -30 3 -31 -7 -1 -24 -1 -38 0 l-25 1 23
-12 c33 -17 27 -27 -15 -23 l-38 5 33 -12 c17 -6 32 -16 32 -22 0 -15 -38 -38
-50 -31 -6 4 -10 2 -10 -3 0 -6 8 -13 18 -17 16 -7 15 -8 -3 -15 -11 -5 -14
-9 -7 -9 6 -1 12 -6 12 -12 0 -7 -11 -9 -27 -6 l-28 6 28 -12 c36 -15 34 -27
-5 -28 -32 -2 -32 -2 -5 -6 16 -3 26 -10 24 -16 -2 -7 -12 -11 -22 -9 -10 2
-14 -1 -10 -7 3 -6 13 -11 21 -11 8 0 14 -7 14 -16 0 -12 -7 -14 -31 -9 -39 9
-31 -10 8 -20 16 -3 37 -15 49 -26 21 -20 21 -20 36 3 20 32 29 58 19 58 -5 0
-12 -10 -16 -22 -4 -15 -8 -18 -12 -10 -3 7 -1 20 3 30 4 9 6 38 5 63 -4 66
15 124 65 207 24 40 44 75 44 78 0 6 62 74 119 131 18 19 31 36 29 38 -3 3 -7
2 -10 -1z"/>
<path d="M2130 1396 c0 -2 7 -7 16 -10 8 -3 12 -2 9 4 -6 10 -25 14 -25 6z"/>
<path d="M925 1920 c-3 -5 -1 -10 4 -10 6 0 11 5 11 10 0 6 -2 10 -4 10 -3 0
-8 -4 -11 -10z"/>
<path d="M940 1892 c0 -3 30 -35 68 -72 42 -42 79 -91 100 -132 36 -73 69
-215 52 -232 -16 -16 -12 -26 10 -26 11 0 20 5 20 10 0 6 11 16 25 22 18 8 22
14 14 24 -7 9 -5 15 8 23 10 6 13 11 6 11 -6 0 -15 -4 -18 -10 -3 -5 -12 -10
-20 -10 -19 0 -15 48 5 60 13 8 12 10 -4 10 -16 0 -17 2 -5 16 12 15 11 16 -8
10 -12 -4 -24 -2 -28 4 -4 7 2 14 14 17 23 6 29 23 9 23 -10 0 -9 3 1 9 11 7
8 11 -10 17 -13 4 -30 7 -36 6 -19 -4 -16 15 5 28 14 9 13 10 -7 4 -19 -5 -23
-3 -18 10 4 11 1 16 -11 16 -15 1 -15 3 3 16 20 15 19 16 -5 12 -16 -2 -24 2
-22 10 1 6 -5 12 -13 12 -20 0 -19 19 0 27 24 8 -19 36 -44 28 -21 -6 -38 10
-21 20 19 12 10 22 -17 17 -21 -4 -25 -2 -20 11 4 11 0 15 -14 14 -10 -1 -19
-3 -19 -5z"/>
<path d="M2327 1512 c3 -12 9 -25 14 -28 14 -8 11 10 -6 32 -13 18 -14 18 -8
-4z"/>
<path d="M1888 983 c-4 -14 1 -18 19 -18 13 0 23 6 23 14 0 8 -3 11 -7 8 -3
-4 -12 -2 -18 3 -9 8 -14 5 -17 -7z"/>
<path d="M1806 935 c-3 -8 -14 -15 -25 -15 -11 0 -32 -6 -47 -12 -22 -10 -28
-10 -32 0 -6 18 -27 15 -47 -8 -19 -21 -8 -29 12 -9 8 8 17 8 33 -1 16 -8 25
-8 35 0 7 6 24 8 38 5 19 -5 28 -2 37 14 7 13 21 21 37 21 31 0 28 5 -8 14
-19 4 -29 1 -33 -9z"/>
</g>
</svg>
