<?xml version="1.0" standalone="no"?>
<!DOCTYPE svg PUBLIC "-//W3C//DTD SVG 20010904//EN"
 "http://www.w3.org/TR/2001/REC-SVG-20010904/DTD/svg10.dtd">
<svg version="1.0" xmlns="http://www.w3.org/2000/svg"
 width="650.000000pt" height="190.000000pt" viewBox="0 0 650.000000 190.000000"
 preserveAspectRatio="xMidYMid meet">

<g transform="translate(0.000000,190.000000) scale(0.100000,-0.100000)"
fill="#000000" stroke="none">
<path d="M2400 1361 c-125 -8 -267 -42 -330 -79 -78 -47 -160 -112 -160 -128
0 -2 -11 -21 -24 -42 -14 -20 -28 -50 -32 -65 -3 -16 -17 -35 -30 -44 -31 -20
-30 -31 1 -43 14 -5 25 -15 25 -22 0 -25 69 -148 82 -148 13 0 58 -43 58 -55
0 -12 51 -45 72 -45 7 0 27 -7 43 -16 48 -25 111 -42 239 -64 105 -19 132 -20
233 -10 64 6 123 15 133 20 9 5 50 17 91 26 81 18 186 70 194 95 3 9 24 24 46
34 45 21 92 81 104 133 4 19 18 43 31 55 21 18 22 23 10 36 -7 9 -26 41 -40
71 -18 38 -42 67 -76 93 -28 20 -50 43 -50 50 0 15 -101 78 -160 99 -147 52
-240 62 -460 49z m290 -99 c103 -25 141 -45 210 -112 70 -68 79 -104 33 -140
l-26 -21 32 -33 c26 -27 32 -40 29 -66 -2 -28 -13 -41 -63 -77 -33 -24 -67
-46 -75 -50 -8 -3 -24 -14 -35 -24 -11 -9 -49 -29 -84 -43 -56 -23 -78 -26
-170 -25 -207 1 -338 40 -441 129 -34 29 -66 64 -71 77 -11 30 4 62 42 89 l30
22 -30 10 c-33 12 -51 44 -43 74 15 59 239 196 342 209 81 11 234 2 320 -19z"/>
<path d="M2470 1084 l-34 -43 -91 -3 -90 -3 57 -18 c78 -25 86 -37 53 -81
l-26 -34 23 5 c13 4 32 12 43 20 11 7 29 13 40 13 12 0 26 5 33 12 9 9 18 8
39 -2 34 -16 125 -49 137 -50 4 0 -4 16 -19 35 -21 29 -24 39 -15 50 7 8 22
15 34 15 11 1 32 7 45 14 21 12 17 13 -54 19 -85 8 -98 14 -123 63 l-17 32
-35 -44z"/>
<path d="M315 1330 c-94 -10 -155 -31 -177 -62 -12 -17 -29 -28 -43 -28 -25 0
-35 -17 -35 -61 0 -38 41 -59 112 -59 55 0 64 4 86 32 12 15 11 21 -7 44 -28
35 -17 47 61 62 35 7 81 18 103 23 24 5 78 6 135 1 52 -5 275 -7 495 -5 532 5
511 6 554 -21 20 -12 42 -26 49 -30 9 -5 12 7 12 48 l0 55 -634 -1 c-348 -1
-637 1 -642 3 -5 3 -36 2 -69 -1z"/>
<path d="M456 1243 c-38 -4 -38 -5 -33 -41 21 -132 21 -139 -4 -164 -22 -22
-23 -25 -7 -40 37 -36 37 -221 0 -261 l-21 -22 172 2 c95 1 250 2 345 2 l172
1 0 39 c0 70 -6 74 -59 43 -45 -26 -51 -27 -221 -30 -218 -4 -215 -5 -225 113
-9 119 -8 120 148 116 69 -1 150 -8 181 -15 30 -7 58 -11 61 -8 3 3 5 27 5 54
l0 49 -52 -7 c-29 -4 -56 -11 -59 -16 -6 -9 -201 -10 -251 -1 -28 5 -28 6 -28
78 0 60 3 76 17 84 10 5 16 11 13 14 -8 7 -112 14 -154 10z"/>
<path d="M1170 1210 c16 -23 20 -44 20 -114 0 -74 -3 -89 -21 -107 -20 -20
-20 -21 -2 -34 14 -11 19 -30 22 -100 3 -78 1 -89 -19 -110 l-22 -23 265 1
265 2 4 42 c2 24 3 43 2 43 0 0 -16 -8 -35 -17 -26 -13 -61 -17 -153 -17 -118
0 -119 0 -143 29 -22 25 -25 36 -21 88 3 39 10 64 20 71 15 11 15 13 -3 24
-28 18 -28 161 1 215 l21 38 -111 -2 -110 -1 20 -28z"/>
<path d="M3238 1143 c27 -32 55 -68 61 -80 14 -28 14 -76 0 -90 -8 -8 2 -20
35 -42 55 -38 60 -48 81 -139 l17 -72 177 0 178 0 -4 28 c-3 16 8 54 26 93 23
51 39 72 68 90 51 30 50 29 30 40 -39 22 -12 79 87 187 38 41 77 43 112 5 25
-27 29 -37 39 -111 5 -39 2 -46 -24 -71 l-30 -28 24 -23 c33 -31 44 -118 21
-166 l-16 -34 315 0 315 0 0 55 c0 53 -1 54 -18 37 -16 -16 -43 -20 -207 -26
-190 -6 -223 -2 -211 29 2 7 0 31 -6 54 -8 30 -8 45 0 53 16 16 252 10 310 -8
26 -7 49 -14 51 -14 5 0 -4 109 -10 113 -2 2 -70 -1 -151 -6 -184 -12 -193
-10 -202 45 -5 33 -3 45 9 54 26 19 326 4 413 -22 21 -6 22 -3 22 43 l0 50
-434 6 c-480 7 -571 4 -560 -22 20 -45 15 -79 -21 -152 -21 -41 -52 -94 -70
-119 -17 -25 -35 -53 -38 -62 -4 -10 -15 -18 -24 -18 -14 0 -38 39 -92 151
-68 138 -73 153 -64 184 10 32 9 33 -19 39 -17 3 -77 6 -135 6 l-104 0 49 -57z"/>
<path d="M5327 1193 l-68 -4 25 -20 c24 -19 26 -27 26 -93 0 -60 -3 -76 -20
-91 l-20 -18 25 -27 c34 -35 33 -79 -2 -120 l-27 -33 -91 5 c-58 3 -102 11
-124 22 -29 16 -33 21 -29 52 l4 34 -103 0 c-72 0 -103 -4 -103 -12 0 -6 11
-31 25 -54 47 -80 163 -124 332 -124 106 0 191 25 274 82 46 31 49 36 47 72
-2 32 3 43 31 68 18 16 31 30 29 32 -1 1 -15 10 -30 19 -26 16 -28 22 -28 83
0 51 5 73 21 95 l20 29 -44 0 c-25 0 -57 2 -73 3 -16 2 -60 2 -97 0z"/>
<path d="M5836 1170 c-94 -36 -129 -66 -162 -140 -14 -30 -30 -58 -37 -62 -8
-5 -6 -13 9 -30 11 -13 26 -41 32 -64 14 -49 38 -72 117 -113 128 -65 318 -69
487 -9 84 29 111 53 133 114 10 27 27 59 37 70 11 12 15 24 10 28 -5 3 -19 33
-31 66 -18 49 -30 65 -64 87 -85 54 -153 71 -308 78 -143 5 -145 5 -223 -25z
m321 -53 c42 -8 69 -26 82 -54 18 -40 13 -71 -14 -89 -25 -17 -25 -17 -5 -31
40 -28 13 -110 -46 -138 -59 -28 -262 -12 -297 24 -26 26 -26 74 0 109 19 26
19 28 2 42 -17 14 -23 34 -20 73 1 17 62 52 121 68 27 8 124 5 177 -4z"/>
</g>
</svg>
